<?xml version="1.0" standalone="no"?>
<!DOCTYPE svg PUBLIC "-//W3C//DTD SVG 20010904//EN"
 "http://www.w3.org/TR/2001/REC-SVG-20010904/DTD/svg10.dtd">
<svg version="1.0" xmlns="http://www.w3.org/2000/svg"
 width="200.000000pt" height="200.000000pt" viewBox="0 0 200.000000 200.000000"
 preserveAspectRatio="xMidYMid meet">
<metadata>
Created by potrace 1.14, written by Peter Selinger 2001-2017
</metadata>
<g transform="translate(0.000000,200.000000) scale(0.100000,-0.100000)"
fill="#000000" stroke="none">
<path d="M765 1880 c-265 -153 -259 -150 -450 -259 -88 -50 -167 -101 -176
-112 -14 -19 -16 -78 -15 -513 1 -424 3 -495 16 -507 13 -13 312 -189 470
-277 25 -14 89 -52 143 -84 55 -32 101 -58 103 -58 2 0 25 -13 51 -29 86 -52
99 -51 220 20 60 34 123 70 141 80 17 11 47 27 65 38 17 10 140 80 271 156
132 75 247 146 256 157 14 18 16 73 15 507 0 345 -4 492 -12 506 -9 16 -121
84 -346 210 -9 6 -121 70 -248 143 -128 74 -246 136 -263 138 -26 4 -66 -15
-241 -116z"/>
</g>
</svg>
